# AST/ASF file generated using VICON BodyLanguage
# -----------------------------------------------
:version 1.10
:name VICON
:units
  mass 1.0
  length 0.45
  angle deg
:documentation
   .ast/.asf automatically generated from VICON data using
   VICON BodyBuilder and BodyLanguage model FoxedUp or BRILLIANT.MOD
:root
   order TX TY TZ RX RY RZ
   axis XYZ
   position 0 0 0  
   orientation 0 0 0 
:bonedata
  begin
     id 1 
     name lhipjoint
     direction 0.604623 -0.733026 0.311616 
     length 2.56391 
     axis 0 0 0  XYZ
  end
  begin
     id 2 
     name lfemur
     direction 0.34202 -0.939693 0  
     length 7.75596  
     axis 0 0 20  XYZ
    dof rx ry rz
    limits (-160.0 20.0)
           (-70.0 70.0)
           (-60.0 70.0)
  end
  begin
     id 3 
     name ltibia
     direction 0.34202 -0.939693 0   
     length 7.63697   
     axis 0 0 20   XYZ
    dof rx
    limits (-10.0 170.0)
  end
  begin
     id 4 
     name lfoot
     direction 0.048038 -0.131983 0.990087   
     length 1.94388   
     axis -90 7.62852e-016 20   XYZ
    dof rx rz
    limits (-45.0 90.0)
           (-70.0 20.0)
  end
  begin
     id 5 
     name ltoes
     direction 1.53565e-011 -4.21929e-011 1   
     length 0.984801   
     axis -90 7.62852e-016 20   XYZ
    dof rx
    limits (-90.0 20.0)
  end
  begin
     id 6 
     name rhipjoint
     direction -0.609162 -0.729836 0.31026   
     length 2.57511  
     axis 0 0 0  XYZ 
  end
  begin
     id 7 
     name rfemur
     direction -0.34202 -0.939693 0   
     length 7.60772   
     axis 0 0 -20   XYZ
    dof rx ry rz
    limits (-160.0 20.0)
           (-70.0 70.0)
           (-70.0 60.0)
  end
  begin
     id 8 
     name rtibia
     direction -0.34202 -0.939693 0   
     length 7.68497   
     axis 0 0 -20   XYZ
    dof rx
    limits (-10.0 170.0)
 end
 begin
     id 9 
     name rfoot
     direction -0.0969806 -0.266452 0.958957   
     length 2.01398  
     axis -90 -7.62852e-016 -20   XYZ
    dof rx rz
    limits (-45.0 90.0)
           (-20.0 70.0)
  end
  begin
     id 10 
     name rtoes
     direction -1.53552e-011 -4.21869e-011 1   
     length 1.00896   
     axis -90 -7.62852e-016 -20   XYZ
    dof rx
    limits (-90.0 20.0)
  end
  begin
     id 11 
     name lowerback
     direction 0.0305179 0.993923 -0.10576   
     length 2.09077   
     axis 0 0 0   XYZ
    dof rx ry rz
    limits (-20.0 45.0)
           (-30.0 30.0)
           (-30.0 30.0)
  end
  begin
     id 12 
     name upperback
     direction -0.0137909 0.999867 0.00873764   
     length 2.08918   
     axis 0 0 0   XYZ
    dof rx ry rz
    limits (-20.0 45.0)
           (-30.0 30.0)
           (-30.0 30.0)
  end
  begin
     id 13 
     name thorax
     direction -0.0278536 0.997917 0.0581839   
     length 2.11939   
     axis 0 0 0   XYZ
    dof rx ry rz
    limits (-20.0 45.0)
           (-30.0 30.0)
           (-30.0 30.0)
  end
  begin
     id 14 
     name lowerneck
     direction 0.0138689 0.999837 -0.0116016   
     length 1.74353   
     axis 0 0 0   XYZ
    dof rx ry rz
    limits (-20.0 45.0)
           (-30.0 30.0)
           (-30.0 30.0)
  end
  begin
     id 15 
     name upperneck
     direction -0.00992078 0.999667 0.0238149   
     length 1.71734   
     axis 0 0 0   XYZ
    dof rx ry rz
    limits (-20.0 45.0)
           (-30.0 30.0)
           (-30.0 30.0)
  end
  begin
     id 16
     name head
     direction -0.00530555 0.999941 0.00944937  
     length 1.78249  
     axis 0 0 0   XYZ
    dof rx ry rz
    limits (-20.0 45.0)
           (-30.0 30.0)
           (-30.0 30.0)
  end
  begin
     id 17 
     name lclavicle
     direction 0.929165 0.366864 0.0454227  
     length 3.65686  
     axis 0 0 0   XYZ
    dof ry rz
    limits (-20.0 10.0)
           (0.0 20.0)
  end
  begin
     id 18 
     name lhumerus
     direction 1 -4.4897e-011 3.05413e-018   
     length 5.15218   
     axis -180 -30 -90   XYZ
    dof rx ry rz
    limits (-60.0 90.0)
           (-90.0 90.0)
           (-90.0 90.0)
  end
  begin
     id 19
     name lradius
     direction 1 -4.48963e-011 5.40022e-027   
     length 3.49459   
     axis -180 -30 -90   XYZ
    dof rx
    limits (-10.0 170.0)
  end
  begin
     id 20
     name lwrist
     direction 1 -4.48966e-011 9.79369e-027   
     length 1.7473   
     axis -4.67603e-015 90 90   XYZ
    dof ry
    limits (-180.0 0.0)
 end
  begin
     id 21 
     name lhand
     direction 1 -4.48996e-011 1.9593e-026   
     length 0.512466   
     axis -1.24987e-014 90 90   XYZ
    dof rx rz
    limits (-90.0 90.0)
           (-45.0 45.0)
  end
  begin
     id 22 
     name lfingers
     direction 1 -4.48931e-011 3.91616e-026   
     length 0.413163   
     axis -2.49979e-014 90 90   XYZ
    dof rx
    limits (0.0 90.0)
  end
  begin
     id 23
     name lthumb
     direction 0.707107 -6.34959e-011 0.707107   
     length 0.593222   
     axis -90 45 5.69224e-014   XYZ
    dof rx rz
    limits (-45.0 45.0)
           (-45.0 45.0)
  end
  begin
     id 24 
     name rclavicle
     direction -0.951469 0.307727 0.00346571   
     length 3.42864  
     axis 0 0 0   XYZ 
    dof ry rz
    limits (-10.0 20.0)
           (-20.0 0.0)
  end
  begin
     id 25 
     name rhumerus
     direction -1 -4.48967e-011 2.58643e-027  
     length 5.44344   
     axis -180 30 90   XYZ
    dof rx ry rz
    limits (-90.0 60.0)
           (-90.0 90.0)
           (-90.0 90.0)
  end
  begin
     id 26 
     name rradius
     direction -1 -4.48973e-011 4.26485e-028   
     length 3.58403   
     axis -180 30 90   XYZ
    dof rx
    limits (-10.0 170.0)
  end
  begin
     id 27 
     name rwrist
     direction -1 -4.48962e-011 9.79331e-027   
     length 1.79202   
     axis -4.67603e-015 -90 -90   XYZ
    dof ry
    limits (-180.0 0.0)
  end
  begin
     id 28
     name rhand
     direction -1 -4.48975e-011 1.95891e-026   
     length 0.34249   
     axis -1.24987e-014 -90 -90   XYZ
    dof rx rz
    limits (-90.0 90.0)
           (-45.0 45.0)
  end
  begin
     id 29
     name rfingers
     direction -1 -4.48893e-011 3.9147e-026   
     length 0.276124   
     axis -2.49979e-014 -90 -90   XYZ
    dof rx
    limits (0.0 90.0)
  end
  begin
     id 30
     name rthumb
     direction -0.707107 -6.34898e-011 0.707107   
     length 0.39646   
     axis -90 -45 -5.69224e-014   XYZ
    dof rx rz
    limits (-45.0 45.0)
           (-45.0 45.0)
  end
:hierarchy
  begin
    root lhipjoint rhipjoint lowerback
    lhipjoint lfemur
    lfemur ltibia
    ltibia lfoot
    lfoot ltoes
    rhipjoint rfemur
    rfemur rtibia
    rtibia rfoot
    rfoot rtoes
    lowerback upperback
    upperback thorax
    thorax lowerneck lclavicle rclavicle
    lowerneck upperneck
    upperneck head
    lclavicle lhumerus
    lhumerus lradius
    lradius lwrist
    lwrist lhand lthumb
    lhand lfingers
    rclavicle rhumerus
    rhumerus rradius
    rradius rwrist
    rwrist rhand rthumb
    rhand rfingers
  end

#!OML:ASF H:\charlestonDancing\Project 1\Capture day 1\Session 1\femaleDancer.ASF
:FULLY-SPECIFIED
:DEGREES
202
root -4.77397 16.7843 -0.278606 -182.281 109.282 -537.145
lowerback 15.6253 -4.96471 -0.942575
upperback 3.78979 -6.59456 -0.680487
thorax -4.65498 -3.17887 1.07486
lowerneck 3.57767 9.68765 11.5313
upperneck 9.0839 13.3997 -2.80553
head 3.45047 7.00058 -2.56248
rclavicle -5.78712e-014 -1.39149e-015
rhumerus -56.8992 -15.812 -45.2065
rradius 46.3595
rwrist -6.08084
rhand -16.9285 -35.7229
rfingers 7.12502
rthumb 9.30436 -65.4976
lclavicle -5.78712e-014 -1.39149e-015
lhumerus -7.62361 5.05065 64.7103
lradius 80.7222
lwrist 25.4178
lhand -13.4876 28.3915
lfingers 7.12502
lthumb 12.6231 57.9901
rfemur -32.0373 16.9444 10.2499
rtibia 25.4193
rfoot 7.12074 28.1734
rtoes -24.9996
lfemur -3.17585 -6.91941 -24.5349
ltibia 51.9097
lfoot -19.064 -18.5834
ltoes -37.1576
203
root -4.99982 16.8144 -0.4514 -181.436 111.092 -536.635
lowerback 16.0645 -5.29797 -1.52384
upperback 3.47139 -7.1369 -0.470609
thorax -5.1195 -3.43165 1.77691
lowerneck 4.16895 9.92941 12.2085
upperneck 9.31107 13.9184 -4.16985
head 3.27012 7.23898 -2.81335
rclavicle -2.80038e-014 8.54774e-015
rhumerus -57.7781 -15.4234 -45.0034
rradius 47.4305
rwrist -4.92897
rhand -17.5352 -35.985
rfingers 7.12502
rthumb 8.71889 -65.7849
lclavicle -2.80038e-014 8.54774e-015
lhumerus -8.26859 6.14608 64.7514
lradius 80.389
lwrist 25.8346
lhand -14.371 28.229
lfingers 7.12502
lthumb 11.7714 57.8783
rfemur -32.8553 14.9706 11.1711
rtibia 24.7894
rfoot 10.1158 27.1144
rtoes -24.4987
lfemur -3.49163 -6.02641 -25.3551
ltibia 49.9067
lfoot -11.0414 -23.4481
ltoes 19.0949
204
root -5.22014 16.8341 -0.622332 -179.713 112.956 -535.359
lowerback 16.3607 -5.56061 -2.28319
upperback 3.06903 -7.63318 -0.381054
thorax -5.57819 -3.65401 2.43877
lowerneck 4.66714 10.1428 12.8544
upperneck 9.38881 14.3674 -5.26529
head 3.37513 7.46401 -3.22804
rclavicle 2.17421e-014 5.26779e-015
rhumerus -58.3747 -15.3016 -44.8465
rradius 48.1505
rwrist -3.11692
rhand -18.12 -35.5788
rfingers 7.12502
rthumb 8.15455 -65.4014
lclavicle 2.17421e-014 5.26779e-015
lhumerus -9.05432 7.09685 64.6614
lradius 80.1911
lwrist 26.7521
lhand -15.2029 28.7065
lfingers 7.12502
lthumb 10.9691 58.3999
rfemur -33.9872 13.015 11.7993
rtibia 24.9237
rfoot 10.6326 23.6175
rtoes -28.0667
lfemur -3.97884 -5.445 -26.4658
ltibia 48.1516
lfoot -13.4476 -23.3807
ltoes 19.8872
205
root -5.41876 16.8516 -0.784334 -179.098 115.227 -535.328
lowerback 16.2014 -5.72216 -2.48898
upperback 2.83555 -7.88621 -0.238802
thorax -5.68034 -3.77411 2.7472
lowerneck 4.99286 10.384 13.2693
upperneck 9.27479 14.8205 -6.31676
head 3.43653 7.6796 -3.59226
rclavicle -8.40859e-014 -1.27222e-014
rhumerus -58.6191 -15.2797 -45.0431
rradius 48.9485
rwrist -1.27912
rhand -18.8302 -35.8221
rfingers 7.12502
rthumb 7.46905 -65.6703
lclavicle -8.40859e-014 -1.27222e-014
lhumerus -9.80595 8.11719 64.4684
lradius 80.1866
lwrist 27.6022
lhand -15.5667 29.3964
lfingers 7.12502
lthumb 10.6181 59.1081
rfemur -34.8184 12.4623 12.4713
rtibia 26.1361
rfoot 6.57078 18.8088
rtoes -36.4246
lfemur -4.73839 -4.61304 -26.9727
ltibia 46.8093
lfoot -18.0248 -21.623
ltoes 11.4049
206
root -5.62095 16.8647 -0.940819 -178.566 117.524 -535.387
lowerback 15.9224 -5.87524 -2.57296
upperback 2.79209 -8.0973 -0.155382
thorax -5.54002 -3.88315 2.89091
lowerneck 4.76114 10.7393 13.3286
upperneck 9.17418 15.3214 -7.07361
head 3.55329 7.9024 -3.78054
rclavicle -1.59028e-014 1.38155e-014
rhumerus -58.3977 -15.3695 -45.7954
rradius 49.8727
rwrist -0.00737387
rhand -19.048 -35.5551
rfingers 7.12502
rthumb 7.25881 -65.4106
lclavicle -1.59028e-014 1.38155e-014
lhumerus -10.4555 9.31717 64.1721
lradius 80.2816
lwrist 28.161
lhand -15.8999 29.4538
lfingers 7.12502
lthumb 10.2967 59.1817
rfemur -35.7888 13.1759 12.5932
rtibia 28.1636
rfoot 3.98551 13.6096
rtoes -33.142
lfemur -6.20652 -3.65386 -27.3312
ltibia 46.5305
lfoot -18.1482 -20.9073
ltoes 15.384
207
root -5.82787 16.8575 -1.09088 -178.03 119.64 -535.346
lowerback 15.4098 -5.99178 -2.36292
upperback 3.07523 -8.20524 -0.319094
thorax -5.00997 -3.95933 2.54598
lowerneck 4.12891 11.0515 13.3438
upperneck 9.0405 15.6786 -7.46733
head 3.68226 8.04934 -3.8373
rclavicle -4.44284e-014 1.30204e-014
rhumerus -57.8899 -16.3876 -46.7935
rradius 50.5326
rwrist 0.952023
rhand -19.0304 -34.5914
rfingers 7.12502
rthumb 7.27581 -64.4463
lclavicle -4.44284e-014 1.30204e-014
lhumerus -10.583 10.1883 63.7263
lradius 80.3634
lwrist 28.3549
lhand -16.2291 29.0821
lfingers 7.12502
lthumb 9.97911 58.8255
rfemur -36.766 13.9841 12.5895
rtibia 31.3015
rfoot 0.599898 7.42234
rtoes -27.1668
lfemur -7.89067 -3.25986 -27.7759
ltibia 46.6769
lfoot -17.7276 -19.5792
ltoes 17.8933
208
root -6.02489 16.8638 -1.22906 -179.93 122.355 -537.802
lowerback 14.5144 -5.84009 -0.459599
upperback 3.85381 -7.68697 -0.484036
thorax -4.00506 -3.74654 1.09875
lowerneck 3.39964 11.1867 13.6227
upperneck 8.61918 15.7702 -7.83874
head 3.73219 8.06665 -3.94269
rclavicle 2.00673e-013 -3.1408e-014
rhumerus -57.422 -18.3181 -48.0463
rradius 51.1738
rwrist 1.69571
rhand -19.3727 -34.1715
rfingers 7.12502
rthumb 6.94534 -64.0376
lclavicle 2.00673e-013 -3.1408e-014
lhumerus -10.0344 10.5206 63.1742
lradius 80.3315
lwrist 28.0534
lhand -16.0814 28.9132
lfingers 7.12502
lthumb 10.1217 58.6498
rfemur -37.3094 15.0186 14.4337
rtibia 34.922
rfoot -2.67172 1.973
rtoes -24.2607
lfemur -9.32889 -2.33301 -26.654
ltibia 47.0097
lfoot -20.0023 -16.4715
ltoes 6.29305
209
root -6.18988 16.9077 -1.39142 -176.427 124.689 -534.016
lowerback 16.6629 -6.18145 -3.3938
upperback 2.23549 -8.69989 -0.178492
thorax -6.38269 -4.12933 3.55951
lowerneck 4.90565 11.8734 13.3741
upperneck 9.27783 17.0418 -9.05843
head 3.90999 8.70809 -4.25456
rclavicle -7.97996e-014 -1.19022e-014
rhumerus -56.3155 -14.7777 -49.2537
rradius 52.0075
rwrist 1.65032
rhand -19.8765 -34.1022
rfingers 7.12502
rthumb 6.45903 -63.9837
lclavicle -7.97996e-014 -1.19022e-014
lhumerus -14.718 12.9231 62.4021
lradius 81.076
lwrist 27.515
lhand -15.6992 28.7756
lfingers 7.12502
lthumb 10.4904 58.4939
rfemur -38.0614 13.9463 12.757
rtibia 39.0297
rfoot -5.15946 -0.949514
rtoes -21.846
lfemur -10.426 -2.31987 -29.5848
ltibia 46.7589
lfoot -21.3586 -13.2068
ltoes -0.192907
